#N canvas 814 176 2560 1349 12;
#X text 50 20 AUTOMOBILE DATA SONIFIER;
#X text 51 45 Receives OSC data from Processing and generates sound;
#X obj 52 72 netreceive -u -b 8000;
#X obj 52 114 oscparse;
#X obj 44 155 list trim;
#X floatatom 48 301 5 0 0 0 - - - 0;
#N canvas 380 175 996 604 synthnote 0;
#X obj 227 59 inlet;
#N canvas 544 239 981 331 oscs 0;
#X obj 37 37 inlet;
#X obj 32 121 osc~;
#X obj 206 123 osc~;
#X obj 204 70 * 1.015;
#X obj 374 127 osc~;
#X obj 372 74 * 0.503;
#X text 359 165 octave below;
#X obj 620 126 osc~;
#X obj 619 78 * 1.496;
#X obj 620 163 *~ 0.5;
#X obj 757 126 osc~;
#X obj 756 78 * 2.01;
#X obj 757 163 *~ 0.25;
#X text 745 202 octave up;
#X text 573 214 fifth up;
#X obj 73 256 outlet~;
#X connect 0 0 1 0;
#X connect 0 0 3 0;
#X connect 0 0 11 0;
#X connect 0 0 8 0;
#X connect 0 0 5 0;
#X connect 1 0 15 0;
#X connect 2 0 15 0;
#X connect 3 0 2 0;
#X connect 4 0 15 0;
#X connect 5 0 4 0;
#X connect 7 0 9 0;
#X connect 8 0 7 0;
#X connect 9 0 15 0;
#X connect 10 0 12 0;
#X connect 11 0 10 0;
#X connect 12 0 15 0;
#X restore 222 223 pd oscs;
#X obj 226 185 mtof;
#X obj 217 305 dac~;
#X obj 220 264 *~;
#X floatatom 227 128 5 0 0 0 MIDI\ note - - 0;
#X obj 449 158 inlet;
#X text 425 128 Enable_sound;
#X connect 0 0 5 0;
#X connect 1 0 4 0;
#X connect 2 0 1 0;
#X connect 4 0 3 0;
#X connect 4 0 3 1;
#X connect 5 0 2 0;
#X connect 6 0 4 1;
#X restore 47 389 pd synthnote;
#X obj 139 298 tgl 19 0 empty empty empty 0 -10 0 12 #fcfcfc #000000 #000000 0 1;
#X obj 45 229 route carData carPlay;
#X connect 2 0 3 0;
#X connect 3 0 4 0;
#X connect 4 0 8 0;
#X connect 5 0 6 0;
#X connect 7 0 6 1;
#X connect 8 0 5 0;
#X connect 8 1 7 0;
